<svg width="30" height="30" viewBox="0 0 30 30" fill="none" xmlns="http://www.w3.org/2000/svg">
<circle cx="15" cy="15" r="14.5" stroke="#999999"/>
<g clip-path="url(#clip0)">
<path d="M10.1473 15.587C9.73865 16.3903 10.2027 16.7743 11.2613 17.4303C12.1613 17.9863 13.4047 18.1896 14.2033 18.271C13.876 18.5856 15.376 17.143 11.056 21.2983C10.14 22.1763 11.6147 23.585 12.53 22.7256L15.008 20.3356C15.9567 21.2483 16.866 22.123 17.486 22.729C18.402 23.5916 19.876 22.195 18.97 21.3016C18.902 21.237 15.612 18.081 15.8127 18.2743C16.6213 18.193 17.846 17.9776 18.7353 17.4336L18.7347 17.433C19.7933 16.7736 20.2573 16.3903 19.8547 15.587C19.6113 15.131 18.9553 14.7496 18.082 15.409C18.082 15.409 16.9027 16.3123 15.0007 16.3123C13.098 16.3123 11.9193 15.409 11.9193 15.409C11.0467 14.7463 10.388 15.131 10.1473 15.587Z" fill="#999999"/>
<path d="M14.9993 15.0947C17.318 15.0947 19.2113 13.2827 19.2113 11.052C19.2113 8.812 17.318 7 14.9993 7C12.68 7 10.7866 8.812 10.7866 11.052C10.7866 13.2827 12.68 15.0947 14.9993 15.0947ZM14.9993 9.05267C16.1386 9.05267 17.068 9.94667 17.068 11.052C17.068 12.148 16.1386 13.042 14.9993 13.042C13.86 13.042 12.9306 12.148 12.9306 11.052C12.93 9.946 13.8593 9.05267 14.9993 9.05267Z" fill="#999999"/>
</g>
<defs>
<clipPath id="clip0">
<rect width="16" height="16" fill="white" transform="translate(7 7)"/>
</clipPath>
</defs>
</svg>
