<svg width="30" height="30" viewBox="0 0 30 30" fill="none" xmlns="http://www.w3.org/2000/svg">
<g clip-path="url(#clip0)">
<path d="M20.9363 15.7711C20.6453 15.4036 20.7285 15.2401 20.9363 14.9116C20.94 14.9079 23.3422 11.5884 23.5897 10.4626L23.5912 10.4619C23.7143 10.0516 23.5913 9.75014 22.9965 9.75014H21.0285C20.5275 9.75014 20.2965 10.0089 20.1727 10.2984C20.1727 10.2984 19.1707 12.6969 17.7533 14.2516C17.2957 14.7009 17.0843 14.8449 16.8345 14.8449C16.7115 14.8449 16.5203 14.7009 16.5203 14.2906V10.4619C16.5203 9.96989 16.38 9.75014 15.9653 9.75014H12.8708C12.5565 9.75014 12.3698 9.97964 12.3698 10.1934C12.3698 10.6599 13.0785 10.7671 13.152 12.0796V14.9274C13.152 15.5514 13.0388 15.6661 12.7875 15.6661C12.1185 15.6661 10.4948 13.2579 9.5325 10.5016C9.33825 9.96689 9.1485 9.75089 8.64375 9.75089H6.675C6.11325 9.75089 6 10.0096 6 10.2991C6 10.8106 6.669 13.3539 9.111 16.7139C10.7385 19.0074 13.0305 20.2501 15.1155 20.2501C16.3688 20.2501 16.5218 19.9741 16.5218 19.4994C16.5218 17.3079 16.4085 17.1009 17.0363 17.1009C17.3273 17.1009 17.8282 17.2449 18.9982 18.3511C20.3355 19.6629 20.5553 20.2501 21.3038 20.2501H23.2717C23.8328 20.2501 24.117 19.9741 23.9535 19.4296C23.5793 18.2844 21.0503 15.9286 20.9363 15.7711Z" fill="#999999"/>
</g>
<circle cx="15" cy="15" r="14.5" stroke="#999999"/>
<defs>
<clipPath id="clip0">
<rect width="18" height="18" fill="white" transform="translate(6 6)"/>
</clipPath>
</defs>
</svg>
