<svg width="30" height="30" viewBox="0 0 30 30" fill="none" xmlns="http://www.w3.org/2000/svg">
<circle cx="15" cy="15" r="14.5" stroke="#999999"/>
<g clip-path="url(#clip0)">
<path d="M23.2772 11.0026C23.0856 10.2906 22.5243 9.72939 21.8124 9.53767C20.5119 9.18182 15.3096 9.18182 15.3096 9.18182C15.3096 9.18182 10.1076 9.18182 8.80702 9.52418C8.10882 9.71569 7.53377 10.2907 7.34225 11.0026C7 12.3031 7 15 7 15C7 15 7 17.7105 7.34225 18.9974C7.53397 19.7093 8.09512 20.2705 8.80712 20.4622C10.1212 20.8182 15.3098 20.8182 15.3098 20.8182C15.3098 20.8182 20.5119 20.8182 21.8124 20.4758C22.5244 20.2842 23.0856 19.723 23.2774 19.0111C23.6195 17.7105 23.6195 15.0137 23.6195 15.0137C23.6195 15.0137 23.6332 12.3031 23.2772 11.0026ZM13.6533 17.4915V12.5085L17.9792 15L13.6533 17.4915Z" fill="#999999"/>
</g>
<defs>
<clipPath id="clip0">
<rect width="16.7273" height="16" fill="white" transform="translate(7 7)"/>
</clipPath>
</defs>
</svg>
